<svg width="169" height="136" viewBox="0 0 169 136" fill="none" xmlns="http://www.w3.org/2000/svg">
<g opacity="0.2">
<circle cx="4.5" cy="4" r="4" fill="#1254FF"/>
<circle cx="4.5" cy="36" r="4" fill="#1254FF"/>
<circle cx="4.5" cy="68" r="4" fill="#1254FF"/>
<circle cx="4.5" cy="100" r="4" fill="#1254FF"/>
<circle cx="4.5" cy="132" r="4" fill="#1254FF"/>
<circle cx="36.5" cy="4" r="4" fill="#1254FF"/>
<circle cx="36.5" cy="36" r="4" fill="#1254FF"/>
<circle cx="36.5" cy="68" r="4" fill="#1254FF"/>
<circle cx="36.5" cy="100" r="4" fill="#1254FF"/>
<circle cx="36.5" cy="132" r="4" fill="#1254FF"/>
<circle cx="68.5" cy="4" r="4" fill="#1254FF"/>
<circle cx="68.5" cy="36" r="4" fill="#1254FF"/>
<circle cx="68.5" cy="68" r="4" fill="#1254FF"/>
<circle cx="68.5" cy="100" r="4" fill="#1254FF"/>
<circle cx="68.5" cy="132" r="4" fill="#1254FF"/>
<circle cx="100.5" cy="4" r="4" fill="#1254FF"/>
<circle cx="164.5" cy="4" r="4" fill="#1254FF"/>
<circle cx="100.5" cy="36" r="4" fill="#1254FF"/>
<circle cx="164.5" cy="36" r="4" fill="#1254FF"/>
<circle cx="100.5" cy="68" r="4" fill="#1254FF"/>
<circle cx="164.5" cy="68" r="4" fill="#1254FF"/>
<circle cx="100.5" cy="100" r="4" fill="#1254FF"/>
<circle cx="164.5" cy="100" r="4" fill="#1254FF"/>
<circle cx="100.5" cy="132" r="4" fill="#1254FF"/>
<circle cx="164.5" cy="132" r="4" fill="#1254FF"/>
<circle cx="132.5" cy="4" r="4" fill="#1254FF"/>
<circle cx="132.5" cy="36" r="4" fill="#1254FF"/>
<circle cx="132.5" cy="68" r="4" fill="#1254FF"/>
<circle cx="132.5" cy="100" r="4" fill="#1254FF"/>
<circle cx="132.5" cy="132" r="4" fill="#1254FF"/>
</g>
</svg>
